<?xml version="1.0" standalone="no"?>
<!DOCTYPE svg PUBLIC "-//W3C//DTD SVG 20010904//EN"
 "http://www.w3.org/TR/2001/REC-SVG-20010904/DTD/svg10.dtd">
<svg version="1.0" xmlns="http://www.w3.org/2000/svg"
 width="512.000000pt" height="512.000000pt" viewBox="0 0 512.000000 512.000000"
 preserveAspectRatio="xMidYMid meet">

<g transform="translate(0.000000,512.000000) scale(0.100000,-0.100000)"
fill="#000000" stroke="none">
<path d="M2490 5039 c-38 -6 -1737 -751 -1899 -833 -64 -33 -127 -106 -146
-169 -22 -74 -22 -1399 0 -1595 113 -1012 765 -1907 1665 -2287 152 -64 360
-125 427 -125 91 0 341 84 548 185 352 171 660 418 910 730 368 459 586 1000
635 1580 5 66 10 420 10 786 0 730 0 724 -60 807 -16 23 -47 53 -67 66 -64 42
-1885 847 -1933 855 -25 4 -65 4 -90 0z m1175 -1588 c127 -58 187 -186 150
-322 l-18 -64 -706 -708 c-516 -517 -718 -713 -751 -729 -26 -13 -71 -24 -108
-26 -55 -4 -71 0 -125 26 -53 27 -114 84 -443 414 -250 251 -387 397 -399 423
-26 56 -31 142 -11 202 47 142 200 216 347 168 49 -16 78 -42 337 -299 l282
-280 578 575 c317 317 592 586 610 598 45 31 76 39 152 40 43 0 79 -6 105 -18z"/>
</g>
</svg>
